<svg width="300" height="100" viewBox="0 0 300 100" fill="none" xmlns="http://www.w3.org/2000/svg">
<path fill-rule="evenodd" clip-rule="evenodd" d="M70.4849 29.4722C69.0161 29.1527 67.4087 29 65.6275 29H48.0752V66.2282H66.1209C67.7876 66.2282 69.4176 66.0189 70.9854 65.6019C72.5715 65.1848 73.988 64.5444 75.2208 63.6708C76.445 62.8056 77.4374 61.6845 78.1655 60.3005C78.8879 58.9335 79.2498 57.3078 79.2498 55.4191C79.2498 53.0907 78.6956 51.1045 77.5661 49.4434C76.4408 47.795 74.7429 46.6358 72.4514 45.977C74.1351 45.1811 75.3932 44.1562 76.2513 42.9065C77.101 41.6554 77.5265 40.089 77.5265 38.2159C77.5265 36.4827 77.2423 35.0167 76.6754 33.8475C76.093 32.6586 75.2815 31.7157 74.2453 31.0074C73.1921 30.2978 71.9453 29.7818 70.4849 29.4722ZM67.3183 59.6545C66.5973 59.8157 65.8297 59.8877 65.0196 59.8877H56.2732V49.6357H65.185C66.9493 49.6357 68.3828 50.0414 69.4586 50.8571C70.533 51.6855 71.073 53.0469 71.073 54.9667C71.073 55.945 70.9133 56.755 70.5825 57.3799C70.2531 58.009 69.7979 58.5037 69.2508 58.8656C68.7023 59.2403 68.052 59.4947 67.3183 59.6545ZM68.175 42.997C67.2221 43.6967 66.0205 44.0403 64.5672 44.0403H56.2732V35.3404H63.9424C64.6662 35.3404 65.3744 35.3927 66.0502 35.5242C66.7372 35.6429 67.3296 35.8621 67.8541 36.1787C68.3828 36.4827 68.8012 36.9181 69.1179 37.4737C69.4232 38.0292 69.5745 38.7446 69.5745 39.6112C69.5745 41.1705 69.1179 42.3085 68.175 42.997Z" fill="#030404"/>
<path fill-rule="evenodd" clip-rule="evenodd" d="M95.7228 61.3918C93.6461 61.3918 92.0444 60.8475 90.9361 59.7646C89.8221 58.6817 89.1025 56.663 89.1025 54.5325H108.553C108.693 52.4417 108.524 50.4427 108.039 48.5314C107.55 46.6159 106.769 44.9081 105.67 43.4153C104.571 41.9196 103.173 40.7236 101.467 39.8429C99.7546 38.9494 97.7571 38.5098 95.4754 38.5098C93.4114 38.5098 91.5454 38.8773 89.8546 39.6068C88.1638 40.3391 86.7106 41.3414 85.4863 42.6123C84.2649 43.8761 83.3361 45.3831 82.6632 47.1305C82.0044 48.8707 81.668 50.7537 81.668 52.7683C81.668 54.8535 81.9917 56.7775 82.6349 58.5149C83.2852 60.2622 84.1985 61.7494 85.3732 63.0076C86.5791 64.2587 88.0112 65.2201 89.726 65.9057C91.4422 66.5829 93.3521 66.9264 95.4754 66.9264C98.5233 66.9264 101.137 66.228 103.282 64.8285C105.45 63.4332 107.041 61.1175 108.088 57.8717H101.568C101.315 58.7072 100.662 59.5102 99.5907 60.2622C98.5078 61.0143 97.2171 61.3918 95.7228 61.3918ZM95.2535 44.1009C97.0715 44.1009 98.5629 44.6268 99.4422 45.6008C100.326 46.5834 100.972 47.9787 101.149 49.866H89.1025C89.1365 49.3401 89.2496 48.7449 89.4404 48.0889C89.6298 47.416 89.955 46.7869 90.4328 46.1903C90.9135 45.6037 91.5411 45.1061 92.3074 44.7046C93.092 44.2988 94.0702 44.1009 95.2535 44.1009Z" fill="#030404"/>
<path d="M119.074 29V43.0365H119.243C120.183 41.4744 121.372 40.3392 122.833 39.6352C124.291 38.9269 125.715 38.5749 127.103 38.5749C129.081 38.5749 130.7 38.8351 131.966 39.3723C133.233 39.9165 134.234 40.6545 134.968 41.6144C135.689 42.57 136.196 43.7377 136.494 45.1118C136.787 46.4831 136.94 47.9958 136.94 49.6639V66.2282H129.499V51.0084C129.499 48.7874 129.153 47.1193 128.462 46.0279C127.771 44.9351 126.545 44.3866 124.774 44.3866C122.772 44.3866 121.326 44.9945 120.429 46.1905C119.515 47.3893 119.074 49.36 119.074 52.1025V66.2282H111.635V29H119.074Z" fill="#030404"/>
<path fill-rule="evenodd" clip-rule="evenodd" d="M145.127 40.4479C143.947 41.1406 142.976 42.0694 142.222 43.2159C141.445 44.3624 141.014 45.8072 140.906 47.556H148.335C148.483 46.09 148.963 45.041 149.798 44.4034C150.611 43.7857 151.759 43.4619 153.207 43.4619C153.858 43.4619 154.47 43.51 155.046 43.5934C155.613 43.6853 156.105 43.8563 156.543 44.1193C156.967 44.3822 157.316 44.7441 157.572 45.2107C157.829 45.6857 157.969 46.3218 157.969 47.1191C158.003 47.8924 157.773 48.4706 157.294 48.8707C156.804 49.268 156.141 49.5804 155.312 49.7882C154.47 49.9988 153.529 50.1501 152.44 50.2575C151.357 50.3636 150.27 50.5035 149.155 50.6746C148.058 50.8456 146.95 51.0874 145.857 51.3828C144.757 51.6741 143.783 52.1208 142.938 52.7131C142.075 53.3026 141.387 54.0985 140.858 55.0895C140.312 56.0777 140.038 57.3415 140.038 58.8768C140.038 60.2693 140.278 61.4724 140.745 62.486C141.214 63.4911 141.857 64.3238 142.694 64.9924C143.527 65.6512 144.502 66.1375 145.602 66.4514C146.719 66.7638 147.912 66.9264 149.193 66.9264C150.864 66.9264 152.491 66.6832 154.087 66.1997C155.696 65.7106 157.079 64.8539 158.256 63.6353C158.29 64.0891 158.351 64.5316 158.439 64.9628C158.523 65.4024 158.709 65.9057 158.929 66.228L166.494 66.2464C166.135 65.6951 165.753 64.8539 165.607 63.7343C165.476 62.6217 165.402 61.461 165.402 60.2396V46.1903C165.402 44.5505 165.032 43.2287 164.298 42.2518C163.573 41.2481 162.639 40.4819 161.494 39.9192C160.344 39.3608 159.08 38.9862 157.695 38.7967C156.29 38.6045 154.923 38.5098 153.573 38.5098C152.073 38.5098 150.594 38.6525 149.115 38.9579C147.631 39.252 146.309 39.7453 145.127 40.4479ZM155.299 54.0985C155.825 53.9883 156.334 53.8596 156.794 53.7055C157.271 53.55 157.65 53.3323 157.969 53.0468V55.8176C157.969 56.2375 157.925 56.7959 157.829 57.4914C157.753 58.1813 157.523 58.8655 157.142 59.5427C156.768 60.2212 156.167 60.8051 155.372 61.2914C154.571 61.7763 153.448 62.018 151.994 62.018C151.407 62.018 150.834 61.9785 150.28 61.8668C149.733 61.765 149.244 61.5826 148.826 61.3197C148.406 61.0581 148.085 60.7061 147.84 60.2523C147.603 59.7971 147.477 59.2401 147.477 58.5828C147.477 57.8929 147.603 57.3076 147.84 56.8581C148.085 56.4113 148.406 56.0381 148.807 55.7398C149.193 55.4444 149.664 55.2111 150.201 55.0372C150.728 54.8605 151.284 54.7248 151.838 54.6145C152.419 54.5099 153.019 54.4293 153.601 54.3601C154.189 54.2851 154.756 54.2017 155.299 54.0985Z" fill="#030404"/>
<path d="M176.508 39.2792V43.0368H176.673C177.609 41.4747 178.819 40.3395 180.321 39.6355C181.809 38.9272 183.352 38.5752 184.914 38.5752C186.9 38.5752 188.531 38.8353 189.791 39.3725C191.073 39.9168 192.07 40.6547 192.792 41.6146C193.533 42.5703 194.042 43.738 194.339 45.1121C194.638 46.4834 194.787 47.996 194.787 49.6642V66.2284H187.344V51.0086C187.344 48.7877 186.995 47.1195 186.301 46.0282C185.595 44.9354 184.381 44.2356 182.598 44.2356C180.585 44.2356 179.116 44.9948 178.216 46.1908C177.307 47.3896 176.859 49.3602 176.859 52.1028V66.2284H169.496V39.2792H176.508Z" fill="#030404"/>
<path d="M208.302 44.9081C209.092 44.3624 210.075 44.1009 211.265 44.1009C214.43 44.1009 216.254 45.6362 216.735 48.7124H223.995C223.881 46.9834 223.468 45.4708 222.746 44.2069C222.015 42.9445 221.061 41.8857 219.896 41.0374C218.734 40.1807 217.409 39.5446 215.936 39.1318C214.452 38.7261 212.915 38.5098 211.315 38.5098C209.128 38.5098 207.18 38.8773 205.475 39.6068C203.763 40.3391 202.315 41.3569 201.132 42.666C199.937 43.9666 199.041 45.5174 198.435 47.3086C197.825 49.104 197.519 51.0478 197.519 53.1344C197.519 55.1503 197.849 57.0065 198.507 58.6973C199.18 60.3838 200.099 61.8371 201.283 63.0585C202.468 64.2757 203.906 65.2201 205.599 65.9057C207.296 66.5829 209.135 66.9264 211.159 66.9264C214.741 66.9264 217.683 65.9778 219.981 64.1075C222.269 62.2244 223.66 59.4946 224.151 55.9194H217.001C216.752 57.5875 216.162 58.9178 215.209 59.9088C214.252 60.8942 212.887 61.3918 211.104 61.3918C209.955 61.3918 208.986 61.1317 208.19 60.6058C207.39 60.0799 206.757 59.4112 206.281 58.5997C205.811 57.7727 205.479 56.8637 205.263 55.8558C205.061 54.8436 204.947 53.8526 204.947 52.8743C204.947 51.8621 205.061 50.8456 205.263 49.8165C205.479 48.7873 205.828 47.8472 206.333 46.9976C206.836 46.1423 207.495 45.4538 208.302 44.9081Z" fill="#030404"/>
<path d="M102.679 31.4971H87.5879V35.1713H102.679V31.4971Z" fill="#030404"/>
<path fill-rule="evenodd" clip-rule="evenodd" d="M240.168 61.3918C238.076 61.3918 236.397 60.8475 235.284 59.7646C234.169 58.6817 233.458 56.663 233.458 54.5325H252.995C253.132 52.4417 252.948 50.4427 252.47 48.5314C251.985 46.6159 251.195 44.9081 250.097 43.4153C249.005 41.9196 247.6 40.7236 245.89 39.8429C244.195 38.9494 242.189 38.5098 239.911 38.5098C237.857 38.5098 235.977 38.8773 234.283 39.6068C232.597 40.3391 231.158 41.3414 229.925 42.6123C228.712 43.8761 227.763 45.3831 227.096 47.1305C226.437 48.8707 226.106 50.7537 226.106 52.7683C226.106 54.8535 226.426 56.7775 227.069 58.5149C227.717 60.2622 228.627 61.7494 229.815 63.0076C231.015 64.2587 232.45 65.2201 234.162 65.9057C235.864 66.5829 237.782 66.9264 239.911 66.9264C242.969 66.9264 245.573 66.228 247.725 64.8285C249.88 63.4332 251.481 61.1175 252.523 57.8717H246.003C245.765 58.7072 245.098 59.5102 244.022 60.2622C242.946 61.0143 241.658 61.3918 240.168 61.3918ZM239.695 44.1009C241.49 44.1009 242.991 44.6268 243.884 45.6008C244.767 46.5834 245.398 47.9787 245.595 49.866H233.458C233.49 49.3401 233.613 48.7449 233.788 48.0889C233.985 47.416 234.323 46.7869 234.794 46.1903C235.264 45.6037 235.965 45.1061 236.733 44.7046C237.53 44.2988 238.513 44.1009 239.695 44.1009Z" fill="#030404"/>
</svg>
