<svg width="300" height="100" viewBox="0 0 300 100" fill="none" xmlns="http://www.w3.org/2000/svg">
<path fill-rule="evenodd" clip-rule="evenodd" d="M107.312 45.3369C107.616 45.3369 107.863 45.5842 107.863 45.8887V63.8877C107.863 63.9911 107.846 64.2168 107.684 64.3057C107.684 64.3057 103.767 67.0649 97.3102 67.0649C89.5117 67.0649 80.2573 64.6634 80.2573 48.5469C80.2573 32.4308 88.3405 29.0781 96.2203 29.0781C103.061 29.0781 105.768 30.5932 106.212 30.9099C106.374 31.0265 106.423 31.1981 106.423 31.3408L105.106 36.9168C105.106 37.2214 104.788 37.563 104.445 37.4581C103.352 37.12 101.634 36.418 97.648 36.418C93.0426 36.418 88.137 37.7813 88.137 48.1429C88.137 58.5024 92.848 59.7344 96.2203 59.7344C99.0788 59.7344 100.113 59.3822 100.113 59.3822V52.212H95.5081C95.2035 52.212 94.9562 51.9643 94.9562 51.6598V45.8887C94.9562 45.5842 95.2035 45.3369 95.5081 45.3369H107.312ZM168.143 31.0092V65.7872C168.142 66.0937 167.899 66.3433 167.595 66.3433H160.933C160.629 66.3433 160.383 66.0937 160.383 65.7872C160.383 65.7861 160.401 50.9113 160.401 50.9113H150.04V65.7872C150.04 66.0937 149.796 66.3433 149.492 66.3433H142.847C142.544 66.3433 142.297 66.0937 142.297 65.7872V31.0092C142.297 30.7023 142.544 30.4543 142.847 30.4543H149.492C149.796 30.4543 150.04 30.7023 150.04 31.0092V43.8533H160.401L160.399 31.0092C160.399 30.7023 160.645 30.4543 160.949 30.4543H167.595C167.9 30.4543 168.143 30.7023 168.143 31.0092ZM119.853 35.5729C119.853 37.9635 117.935 39.9029 115.568 39.9029C113.203 39.9029 111.283 37.9635 111.283 35.5729C111.283 33.18 113.203 31.246 115.568 31.246C117.935 31.246 119.853 33.18 119.853 35.5729ZM119.378 42.3972V65.4507C119.378 66.0166 119.218 66.3383 118.563 66.3383H112.594C112.048 66.3383 111.627 66.137 111.627 65.4617V42.4615C111.627 42.1566 111.899 41.8434 112.203 41.8434H118.828C119.132 41.8434 119.378 42.0927 119.378 42.3972ZM193.402 41.8956C193.705 41.8956 193.952 42.1449 193.952 42.4518L193.954 65.7974C193.954 66.1032 193.707 66.3527 193.405 66.3527L189.147 66.3714C188.934 66.3714 188.737 66.2202 188.661 66.0704C188.585 65.9202 188.419 64.6535 188.419 64.6535C188.419 64.6535 184.912 67.057 180.561 67.057C175.258 67.057 171.403 65.3649 171.403 58.4485V42.4518C171.403 42.1449 171.651 41.8956 171.953 41.8956H178.646C178.95 41.8956 179.195 42.1449 179.195 42.4518V57.3226C179.195 59.6512 179.826 60.7303 182.204 60.7303C184.582 60.7303 186.258 59.5042 186.258 59.5042V42.4518C186.258 42.1449 186.504 41.8956 186.807 41.8956H193.402ZM211.428 41.1144C215.176 41.1144 220.724 42.5153 220.724 53.2351C220.724 63.9549 217.25 67.0272 211.193 67.0272C206.034 67.0272 203.309 64.4448 203.309 64.4448C203.309 64.4448 203.144 65.8612 203.028 66.048C202.911 66.236 202.754 66.3436 202.545 66.3436H197.921C197.618 66.3436 197.371 66.094 197.371 65.7871V31.0091C197.371 30.7022 197.618 30.4542 197.921 30.4542H204.586C204.888 30.4542 205.134 30.7022 205.134 31.0091V42.7858C205.134 42.7858 207.682 41.1144 211.428 41.1144ZM208.827 60.7091C212.027 60.8058 213.059 59.6265 213.059 53.6523C213.059 47.9867 210.771 47.2695 208.396 47.482C206.518 47.6497 204.987 48.5881 204.987 48.5881V59.6016C204.987 59.6016 206.539 60.6393 208.827 60.7091ZM138.479 41.8402C138.784 41.8402 139.03 42.0875 139.03 42.3944V47.7516C139.03 48.059 138.784 48.3074 138.479 48.3074H133.493C133.493 48.3074 133.494 56.6124 133.494 58.0854C133.494 59.5591 134.324 60.6975 136.773 60.6975C137.538 60.6975 138.281 60.5793 138.572 60.5793C138.863 60.5793 139.123 60.8278 139.123 61.1347L139.118 65.8399C139.118 66.0613 139.003 66.2657 138.805 66.3383C138.478 66.4587 136.502 66.9895 134.848 66.9895C131.231 66.9895 125.87 66.2388 125.87 58.5967V48.3074H122.387C122.083 48.3074 121.837 48.059 121.837 47.7516V43.4746C121.837 43.2224 122.006 43.0109 122.236 42.9447C122.466 42.8779 125.87 42.0563 125.87 42.0563V35.2503C125.87 34.9964 126.012 34.8798 126.276 34.8798H133.069C133.359 34.8798 133.487 35.0046 133.487 35.2538C133.487 35.2554 133.494 41.8402 133.494 41.8402H138.479Z" fill="#24292F"/>
</svg>
