<svg width="300" height="100" viewBox="0 0 300 100" fill="none" xmlns="http://www.w3.org/2000/svg">
<path d="M229.143 62.5412C228.428 62.5481 227.745 62.8379 227.243 63.3473C226.741 63.8567 226.461 64.5441 226.464 65.2593C226.468 65.9745 226.754 66.6593 227.261 67.1638C227.768 67.6683 228.454 67.9515 229.169 67.9515C229.885 67.9515 230.571 67.6683 231.078 67.1638C231.585 66.6593 231.871 65.9745 231.875 65.2593C231.878 64.5441 231.598 63.8567 231.096 63.3473C230.594 62.8379 229.911 62.5481 229.195 62.5412H229.143ZM229.143 67.6418C228.674 67.6496 228.213 67.5181 227.819 67.264C227.425 67.0099 227.115 66.6445 226.928 66.2142C226.741 65.7838 226.686 65.3077 226.77 64.8461C226.854 64.3845 227.073 63.9581 227.399 63.6209C227.725 63.2836 228.144 63.0507 228.602 62.9515C229.061 62.8524 229.539 62.8914 229.975 63.0637C230.411 63.236 230.787 63.5338 231.054 63.9195C231.321 64.3052 231.468 64.7614 231.476 65.2305V65.2703C231.489 65.8857 231.257 66.4811 230.831 66.9256C230.405 67.3701 229.821 67.6272 229.205 67.6406H229.144M218.759 61.8022H212.881V52.5966C212.881 50.4015 212.842 47.5757 209.824 47.5757C206.762 47.5757 206.294 49.9674 206.294 52.4368V61.8016H200.415V42.8713H206.059V45.4583H206.138C206.702 44.4927 207.518 43.6984 208.499 43.1599C209.479 42.6214 210.587 42.3589 211.705 42.4004C217.663 42.4004 218.762 46.3192 218.762 51.4173L218.759 61.8022ZM193.783 40.2836C193.108 40.2838 192.449 40.0838 191.888 39.7091C191.327 39.3344 190.889 38.8017 190.631 38.1784C190.373 37.5551 190.305 36.8693 190.437 36.2075C190.568 35.5458 190.893 34.9379 191.37 34.4608C191.847 33.9836 192.455 33.6586 193.116 33.5269C193.778 33.3952 194.464 33.4626 195.087 33.7207C195.71 33.9787 196.243 34.4159 196.618 34.9768C196.993 35.5377 197.193 36.1972 197.193 36.8718C197.194 37.3198 197.105 37.7634 196.934 38.1773C196.763 38.5912 196.512 38.9673 196.195 39.2841C195.878 39.6009 195.502 39.8522 195.088 40.0237C194.674 40.1952 194.231 40.2836 193.783 40.2836ZM196.722 61.8022H190.838V42.8713H196.722V61.8022ZM221.69 28.0025H187.884C187.117 27.9938 186.377 28.2901 185.828 28.8263C185.279 29.3625 184.966 30.0947 184.956 30.862V64.808C184.965 65.5757 185.279 66.3084 185.828 66.8451C186.377 67.3819 187.116 67.6788 187.884 67.6706H221.69C222.459 67.6802 223.2 67.3842 223.752 66.8475C224.303 66.3107 224.618 65.5772 224.629 64.808V30.8595C224.618 30.0907 224.302 29.3577 223.751 28.8215C223.2 28.2853 222.459 27.9899 221.69 28M168.957 47.4404C166.018 47.4404 164.255 49.4028 164.255 52.2623C164.255 55.1218 166.018 57.0861 168.957 57.0861C171.897 57.0861 173.664 55.1267 173.664 52.2623C173.664 49.3979 171.9 47.4404 168.957 47.4404ZM179.076 61.7912H173.664V59.2807H173.584C172.905 60.1938 172.024 60.9379 171.011 61.4549C169.997 61.9719 168.878 62.2479 167.74 62.2614C162.092 62.2614 158.372 58.1852 158.372 52.4209C158.372 47.1269 161.664 42.2657 167.076 42.2657C169.509 42.2657 171.781 42.9313 173.114 44.7762H173.191V33.8641H179.075L179.076 61.7912ZM150.824 50.1278C150.835 49.6509 150.75 49.1767 150.572 48.7339C150.395 48.2911 150.129 47.8889 149.792 47.5517C149.455 47.2145 149.052 46.9493 148.609 46.7722C148.166 46.5951 147.692 46.5097 147.215 46.5213C146.188 46.4574 145.177 46.7996 144.4 47.4743C143.623 48.1489 143.142 49.1019 143.061 50.1278H150.824ZM155.804 58.5165C154.827 59.701 153.599 60.6535 152.208 61.3049C150.818 61.9563 149.3 62.2903 147.765 62.2828C141.887 62.2828 137.181 58.3591 137.181 52.2831C137.181 46.2072 141.886 42.2853 147.765 42.2853C153.259 42.2853 156.705 46.2041 156.705 52.2831V54.1262H143.061C143.231 55.1715 143.773 56.1201 144.587 56.7974C145.401 57.4747 146.433 57.8349 147.491 57.8117C148.328 57.8065 149.15 57.5922 149.883 57.1881C150.616 56.7841 151.235 56.2032 151.686 55.4984L155.804 58.5165ZM97.368 42.8664H103.013V45.4534H103.093C103.657 44.4874 104.473 43.6927 105.453 43.1541C106.433 42.6156 107.541 42.3533 108.659 42.3955C114.62 42.3955 115.717 46.3174 115.717 51.4124V61.7936H109.839V52.5899C109.839 50.3929 109.799 47.5689 106.777 47.5689C103.722 47.5689 103.251 49.9613 103.251 52.4301V61.7912H97.3723L97.368 42.8664ZM118.698 33.866H124.576V50.5607L131.238 42.856H138.445L130.73 51.62L138.283 61.8028H130.895L124.655 52.4454H124.577V61.8016H118.699L118.698 33.866ZM88.2305 42.8645H94.1087V61.7948H88.2305V42.8645ZM91.1696 33.4533C91.844 33.4534 92.5032 33.6535 93.0639 34.0283C93.6246 34.403 94.0615 34.9356 94.3195 35.5587C94.5775 36.1818 94.645 36.8674 94.5133 37.5289C94.3817 38.1903 94.0569 38.7978 93.58 39.2747C93.103 39.7515 92.4954 40.0762 91.834 40.2077C91.1725 40.3393 90.4869 40.2717 89.8639 40.0136C89.2408 39.7555 88.7083 39.3184 88.3336 38.7577C87.959 38.1969 87.759 37.5377 87.759 36.8632C87.759 36.4154 87.8472 35.9719 88.0186 35.5582C88.19 35.1444 88.4412 34.7685 88.758 34.4518C89.0747 34.1352 89.4507 33.884 89.8644 33.7127C90.2782 33.5413 90.7217 33.4532 91.1696 33.4533ZM68.0786 33.8703H74.1975V56.1585H85.5253V61.8052H68.0786V33.8703ZM229.573 65.4179C229.673 65.4189 229.773 65.3992 229.866 65.36C229.959 65.3209 230.042 65.2631 230.112 65.1902C230.181 65.1173 230.235 65.031 230.27 64.9365C230.304 64.842 230.319 64.7414 230.314 64.6409C230.314 64.0898 229.981 63.8265 229.299 63.8265H228.197V66.7117H228.611V65.454H229.121L229.132 65.4693L229.923 66.7117H230.366L229.516 65.4258L229.573 65.4179ZM229.093 65.1289H228.613V64.1535H229.222C229.536 64.1535 229.895 64.2049 229.895 64.617C229.895 65.0909 229.532 65.1289 229.091 65.1289" fill="#2867B2"/>
</svg>
